<mxfile host="app.diagrams.net" modified="2021-07-14T07:52:26.499Z" agent="5.0 (Windows NT 10.0; Win64; x64) AppleWebKit/537.36 (KHTML, like Gecko) Chrome/93.0.4558.0 Safari/537.36 Edg/93.0.946.0" etag="pkbnVhyYoUGEbRN-mdFp" version="14.8.6" type="github">
  <diagram id="YhkaHBbJdocJtiWxX1w6" name="第 1 页">
    <mxGraphModel dx="1662" dy="794" grid="1" gridSize="10" guides="1" tooltips="1" connect="1" arrows="1" fold="1" page="1" pageScale="1" pageWidth="827" pageHeight="1169" math="0" shadow="0">
      <root>
        <mxCell id="0" />
        <mxCell id="1" parent="0" />
      </root>
    </mxGraphModel>
  </diagram>
</mxfile>
